<svg xmlns="http://www.w3.org/2000/svg" viewBox="0 0 64 64" role="img" aria-label="energex.life">
  <rect width="64" height="64" rx="14" fill="#ffffff"/>
  <!-- E outer arcs -->
  <path
    d="M48 14c-8.5-6.5-20-8-29-3.5C10 15 6 26 8 36c2 10 11 18 22 19 8 .7 16-2 22-8"
    fill="none"
    stroke="#0A183A"
    stroke-width="5.5"
    stroke-linecap="round"
  />
  <path
    d="M14 18c7-7 18-9 28-4"
    fill="none"
    stroke="#08B090"
    stroke-width="5.5"
    stroke-linecap="round"
  />
  <!-- plus -->
  <path d="M46 8v10M41 13h10" fill="none" stroke="#08B090" stroke-width="4.5" stroke-linecap="round"/>
  <!-- middle bar -->
  <path d="M28 32h18" fill="none" stroke="#08B090" stroke-width="5" stroke-linecap="round"/>
  <!-- person -->
  <circle cx="26" cy="24" r="4.2" fill="#0A183A"/>
  <path
    d="M22.5 30.5c1.2 6 4.5 11 9 14.5"
    fill="none"
    stroke="#0A183A"
    stroke-width="4.2"
    stroke-linecap="round"
  />
  <path
    d="M26 31c3.5-1 8-0.5 12 3"
    fill="none"
    stroke="#0A183A"
    stroke-width="4"
    stroke-linecap="round"
  />
</svg>
